<svg width="197" height="57" viewBox="0 0 197 57" fill="none" xmlns="http://www.w3.org/2000/svg">
<g filter="url(#filter0_d_107_43)">
<path d="M193 53H4L4.00001 28.9643C4.00001 20.6998 12.9543 14 24 14H173C184.046 14 193 20.6998 193 28.9643V53Z" fill="url(#paint0_linear_107_43)"/>
<path d="M193 53H4L4.00001 28.9643C4.00001 20.6998 12.9543 14 24 14H173C184.046 14 193 20.6998 193 28.9643V53Z" stroke="url(#paint1_linear_107_43)"/>
</g>
<path d="M163.774 0H33.3288C30.6695 0 28.5137 2.15578 28.5137 4.81508C28.5137 7.47437 30.6695 9.63016 33.3288 9.63016H163.774C166.433 9.63016 168.589 7.47437 168.589 4.81508C168.589 2.15578 166.433 0 163.774 0Z" fill="url(#paint2_linear_107_43)"/>
<path d="M48.75 23.925V38.9C48.75 39.1667 48.7833 39.3583 48.85 39.475C48.9333 39.575 49.125 39.625 49.425 39.625H52.125V42H48.45C47.2333 42 46.3083 41.7917 45.675 41.375C45.0583 40.9583 44.75 40.2333 44.75 39.2V25.35C44.75 24.7667 44.8333 24.3833 45 24.2C45.1833 24.0167 45.5583 23.925 46.125 23.925H48.75ZM52.875 23.925H55.5C56.0667 23.925 56.4333 24.0167 56.6 24.2C56.7833 24.3833 56.875 24.7667 56.875 25.35V38.9C56.875 39.1667 56.9083 39.3583 56.975 39.475C57.0583 39.575 57.25 39.625 57.55 39.625H58V42H56.575C55.3583 42 54.4333 41.7917 53.8 41.375C53.1833 40.9583 52.875 40.2333 52.875 39.2V23.925ZM68.5186 36.55H72.0186C72.2019 36.55 72.2936 36.6667 72.2936 36.9V41.3C72.2936 41.7667 72.0602 42 71.5936 42H65.5436V39.625H67.8686C68.1352 39.625 68.2686 39.6 68.2686 39.55C68.2852 39.4833 68.2936 39.4083 68.2936 39.325V36.825C68.2936 36.6917 68.3102 36.6167 68.3436 36.6C68.3769 36.5667 68.4352 36.55 68.5186 36.55ZM64.6686 42H62.0436C61.4769 42 61.1019 41.9083 60.9186 41.725C60.7519 41.5417 60.6686 41.1583 60.6686 40.575V25.35C60.6686 24.7667 60.7519 24.3833 60.9186 24.2C61.1019 24.0167 61.4769 23.925 62.0436 23.925H64.6686V42ZM71.1396 23.925H78.9646C79.2313 23.925 79.448 24.0167 79.6146 24.2C79.7813 24.3833 79.8646 24.625 79.8646 24.925V42H77.2396C76.673 42 76.298 41.9083 76.1146 41.725C75.948 41.5417 75.8646 41.1583 75.8646 40.575V27.05H71.8646C71.3813 27.05 71.1396 26.65 71.1396 25.85V23.925ZM80.8646 23.925H84.8646C85.348 23.925 85.5896 24.325 85.5896 25.125V27.05H80.8646V23.925ZM91.5729 42H88.9479C88.3812 42 88.0062 41.9083 87.8229 41.725C87.6562 41.5417 87.5729 41.1583 87.5729 40.575V25.35C87.5729 24.7667 87.6562 24.3833 87.8229 24.2C88.0062 24.0167 88.3812 23.925 88.9479 23.925H91.5729V42ZM108.216 23.925H111.966C113.183 23.925 114.1 24.1333 114.716 24.55C115.35 24.9667 115.666 25.6917 115.666 26.725V40.575C115.666 41.1583 115.575 41.5417 115.391 41.725C115.225 41.9083 114.858 42 114.291 42H111.666V27.025C111.666 26.7583 111.625 26.575 111.541 26.475C111.475 26.3583 111.291 26.3 110.991 26.3H108.216V23.925ZM99.1412 42H96.5162C95.9495 42 95.5745 41.9083 95.3912 41.725C95.2245 41.5417 95.1412 41.1583 95.1412 40.575V24.925C95.1412 24.625 95.2245 24.3833 95.3912 24.2C95.5579 24.0167 95.7745 23.925 96.0412 23.925H99.1412V42ZM100.166 23.925H106.566C106.833 23.925 107.05 24.0167 107.216 24.2C107.383 24.3833 107.466 24.625 107.466 24.925V40.175H104.866C104.366 40.175 104.008 40.0417 103.791 39.775C103.575 39.4917 103.466 39.0417 103.466 38.425V27.025C103.466 26.7583 103.425 26.575 103.341 26.475C103.275 26.3583 103.091 26.3 102.791 26.3H100.166V23.925ZM125.914 26.3H123.589C123.322 26.3 123.189 26.3667 123.189 26.5V42H120.564C119.997 42 119.622 41.9083 119.439 41.725C119.272 41.5417 119.189 41.1583 119.189 40.575V25.35C119.189 24.7667 119.272 24.3833 119.439 24.2C119.622 24.0167 119.997 23.925 120.564 23.925H125.914V26.3ZM126.914 23.925H129.539C130.106 23.925 130.472 24.0167 130.639 24.2C130.822 24.3833 130.914 24.7667 130.914 25.35V40.55C130.914 41.1333 130.822 41.525 130.639 41.725C130.456 41.9083 130.089 42 129.539 42H126.914V33.625H124.189V31.25H126.914V23.925ZM138.597 23.95V31.125C138.597 31.3917 138.656 31.5833 138.772 31.7C138.906 31.8167 139.189 31.875 139.622 31.875H141.472V34.25H138.297C137.347 34.25 136.581 34.15 135.997 33.95C135.431 33.75 135.006 33.4 134.722 32.9C134.456 32.3833 134.281 31.8333 134.197 31.25C134.131 30.6667 134.097 29.8833 134.097 28.9C134.097 27.9 134.131 27.1417 134.197 26.625C134.281 26.1083 134.456 25.625 134.722 25.175C135.006 24.725 135.431 24.4083 135.997 24.225C136.581 24.0417 137.347 23.95 138.297 23.95H138.597ZM142.472 31.875H142.772C143.489 31.875 144.039 31.8917 144.422 31.925C144.822 31.9417 145.206 32.0167 145.572 32.15C145.939 32.2667 146.189 32.4083 146.322 32.575C146.472 32.7417 146.606 33.0333 146.722 33.45C146.856 33.85 146.931 34.2833 146.947 34.75C146.964 35.2167 146.972 35.8833 146.972 36.75C146.972 37.6167 146.964 38.3083 146.947 38.825C146.931 39.325 146.856 39.8083 146.722 40.275C146.606 40.725 146.472 41.0417 146.322 41.225C146.189 41.4083 145.939 41.575 145.572 41.725C145.206 41.8583 144.822 41.9417 144.422 41.975C144.039 41.9917 143.489 42 142.772 42H142.472V31.875ZM134.447 36.425H137.597C137.831 36.425 137.972 36.4583 138.022 36.525C138.072 36.5917 138.097 36.7333 138.097 36.95V38.9C138.097 39.1667 138.131 39.3583 138.197 39.475C138.281 39.575 138.472 39.625 138.772 39.625H141.472V42H137.797C136.581 42 135.656 41.7917 135.022 41.375C134.406 40.9583 134.097 40.2333 134.097 39.2V36.95C134.097 36.6 134.214 36.425 134.447 36.425ZM139.597 23.925H142.772C143.989 23.925 144.906 24.1333 145.522 24.55C146.156 24.9667 146.472 25.6917 146.472 26.725V28.975C146.472 29.325 146.356 29.5 146.122 29.5H142.972C142.739 29.5 142.597 29.4667 142.547 29.4C142.497 29.3333 142.472 29.1917 142.472 28.975V27.025C142.472 26.7583 142.431 26.575 142.347 26.475C142.281 26.3583 142.097 26.3 141.797 26.3H139.597V23.925Z" fill="url(#paint3_linear_107_43)"/>
<defs>
<filter id="filter0_d_107_43" x="0.5" y="10.5" width="196" height="46" filterUnits="userSpaceOnUse" color-interpolation-filters="sRGB">
<feFlood flood-opacity="0" result="BackgroundImageFix"/>
<feColorMatrix in="SourceAlpha" type="matrix" values="0 0 0 0 0 0 0 0 0 0 0 0 0 0 0 0 0 0 127 0" result="hardAlpha"/>
<feOffset/>
<feGaussianBlur stdDeviation="1.5"/>
<feColorMatrix type="matrix" values="0 0 0 0 0 0 0 0 0 0 0 0 0 0 0 0 0 0 0.25 0"/>
<feBlend mode="screen" in2="BackgroundImageFix" result="effect1_dropShadow_107_43"/>
<feBlend mode="normal" in="SourceGraphic" in2="effect1_dropShadow_107_43" result="shape"/>
</filter>
<linearGradient id="paint0_linear_107_43" x1="98.7838" y1="69.1087" x2="98.7838" y2="-8.89126" gradientUnits="userSpaceOnUse">
<stop offset="0.380208" stop-color="#ECECEC"/>
<stop offset="0.708333" stop-color="#F1F1F1"/>
<stop offset="0.9998"/>
<stop offset="0.9999" stop-color="#EEEEEE"/>
</linearGradient>
<linearGradient id="paint1_linear_107_43" x1="248.732" y1="52.9997" x2="117.648" y2="-132.791" gradientUnits="userSpaceOnUse">
<stop stop-opacity="0"/>
<stop offset="0.317708" stop-color="#00C2FF"/>
<stop offset="0.65625" stop-color="#FF0000"/>
<stop offset="1" stop-opacity="0"/>
</linearGradient>
<linearGradient id="paint2_linear_107_43" x1="176.467" y1="-26.7019" x2="35.5174" y2="79.6676" gradientUnits="userSpaceOnUse">
<stop stop-color="#00A3FF"/>
<stop offset="1" stop-color="#FF0000"/>
</linearGradient>
<linearGradient id="paint3_linear_107_43" x1="98" y1="17" x2="98" y2="68.75" gradientUnits="userSpaceOnUse">
<stop/>
<stop offset="1" stop-color="#DD0909"/>
</linearGradient>
</defs>
</svg>
