<svg width="302" height="256" viewBox="0 0 302 256" fill="none" xmlns="http://www.w3.org/2000/svg">
<path d="M0 64.8894C0 56.6661 9.59413 49.9998 21.4292 49.9998H280.571C292.405 49.9998 302 56.6661 302 64.8894V169.476C302 176.595 294.746 182.719 284.69 184.088L155.119 201.722C152.399 202.092 149.601 202.092 146.881 201.722L17.3102 184.088C7.25431 182.719 0 176.595 0 169.476V64.8894Z" fill="url(#paint0_linear_98_2)"/>
<path d="M21.6755 49.9998H280.325C291.743 49.9998 301 58.7479 301 69.5394V211.521C301 220.864 294 228.901 284.298 230.695H154.974C152 230.695 150 230.695 147.026 230.695H17.7014C7.99915 228.901 1 220.864 1 211.521V69.5394C1 58.7479 10.2568 49.9998 21.6755 49.9998Z" fill="url(#paint1_linear_98_2)" stroke="url(#paint2_linear_98_2)"/>
<g filter="url(#filter0_d_98_2)">
<path d="M233.709 49.7006L68 49.7005V24C68 12.9543 76.9543 4 88 4H213.709C224.755 4 233.709 12.9543 233.709 24V49.7006Z" fill="url(#paint3_linear_98_2)"/>
<path d="M233.709 49.7006L68 49.7005V24C68 12.9543 76.9543 4 88 4H213.709C224.755 4 233.709 12.9543 233.709 24V49.7006Z" stroke="url(#paint4_linear_98_2)"/>
</g>
<path d="M95.5 20.3H93.175C92.9083 20.3 92.775 20.3667 92.775 20.5V36H90.15C89.5833 36 89.2083 35.9083 89.025 35.725C88.8583 35.5417 88.775 35.1583 88.775 34.575V19.35C88.775 18.7667 88.8583 18.3833 89.025 18.2C89.2083 18.0167 89.5833 17.925 90.15 17.925H95.5V20.3ZM96.5 17.925H99.125C99.6917 17.925 100.058 18.0167 100.225 18.2C100.408 18.3833 100.5 18.7667 100.5 19.35V34.55C100.5 35.1333 100.408 35.525 100.225 35.725C100.042 35.9083 99.675 36 99.125 36H96.5V27.625H93.775V25.25H96.5V17.925ZM111.233 36H110.933C110.267 36 109.708 35.95 109.258 35.85C108.825 35.75 108.442 35.55 108.108 35.25C107.792 34.9333 107.542 34.5833 107.358 34.2C107.192 33.8167 107.058 33.2417 106.958 32.475C106.808 31.325 106.733 29.7833 106.733 27.85C106.733 25.9 106.742 24.525 106.758 23.725C106.792 22.925 106.858 22.15 106.958 21.4C107.058 20.6333 107.192 20.0667 107.358 19.7C107.542 19.3167 107.792 18.975 108.108 18.675C108.442 18.3583 108.825 18.1583 109.258 18.075C109.708 17.975 110.267 17.925 110.933 17.925H111.233V36ZM112.233 17.925H115.408C116.625 17.925 117.542 18.1333 118.158 18.55C118.792 18.9667 119.108 19.6917 119.108 20.725V22.975C119.108 23.325 118.992 23.5 118.758 23.5H115.608C115.375 23.5 115.233 23.4667 115.183 23.4C115.133 23.3333 115.108 23.1917 115.108 22.975V21.025C115.108 20.7583 115.067 20.575 114.983 20.475C114.917 20.3583 114.733 20.3 114.433 20.3H112.233V17.925ZM115.608 30.425H118.758C118.992 30.425 119.108 30.6 119.108 30.95V33.2C119.108 34.2333 118.792 34.9583 118.158 35.375C117.542 35.7917 116.625 36 115.408 36H112.233V33.625H114.433C114.733 33.625 114.917 33.575 114.983 33.475C115.067 33.3583 115.108 33.1667 115.108 32.9V30.95C115.108 30.7333 115.133 30.5917 115.183 30.525C115.233 30.4583 115.375 30.425 115.608 30.425ZM129.043 36H126.418C125.851 36 125.476 35.9083 125.293 35.725C125.126 35.5417 125.043 35.1583 125.043 34.575V19.35C125.043 18.7667 125.126 18.3833 125.293 18.2C125.476 18.0167 125.851 17.925 126.418 17.925H129.043V36ZM136.768 32.5V34.625C136.768 35.1917 136.676 35.5667 136.493 35.75C136.309 35.9167 135.926 36 135.343 36H130.043V32.5H136.768ZM135.268 25.125V26.625C135.268 27.225 135.209 27.6083 135.093 27.775C134.976 27.925 134.643 28 134.093 28H130.043V25.125H135.268ZM136.518 17.925V20.05C136.518 20.6167 136.426 20.9917 136.243 21.175C136.059 21.3417 135.676 21.425 135.093 21.425H130.043V17.925H136.518ZM146.395 36H143.77C143.203 36 142.828 35.9083 142.645 35.725C142.478 35.5417 142.395 35.1583 142.395 34.575V18.925C142.395 18.625 142.478 18.3833 142.645 18.2C142.812 18.0167 143.028 17.925 143.295 17.925H146.395V36ZM147.395 17.925H150.57C151.537 17.925 152.295 18 152.845 18.15C153.412 18.3 153.837 18.6 154.12 19.05C154.403 19.4833 154.578 19.975 154.645 20.525C154.728 21.0583 154.77 21.8167 154.77 22.8C154.77 23.7833 154.728 24.5333 154.645 25.05C154.578 25.5667 154.403 26.05 154.12 26.5C153.853 26.95 153.428 27.2667 152.845 27.45C152.278 27.6333 151.52 27.725 150.57 27.725H147.395V25.35H149.245C149.678 25.35 149.953 25.2917 150.07 25.175C150.203 25.0583 150.27 24.875 150.27 24.625V21.05C150.27 20.7833 150.203 20.5917 150.07 20.475C149.953 20.3583 149.678 20.3 149.245 20.3H147.395V17.925ZM149.795 28.5H152.895C153.395 28.5 153.753 28.6417 153.97 28.925C154.187 29.1917 154.295 29.6333 154.295 30.25V36H150.695C150.428 36 150.212 35.9083 150.045 35.725C149.878 35.5417 149.795 35.3 149.795 35V28.5ZM159.599 17.925H167.424C167.69 17.925 167.907 18.0167 168.074 18.2C168.24 18.3833 168.324 18.625 168.324 18.925V36H165.699C165.132 36 164.757 35.9083 164.574 35.725C164.407 35.5417 164.324 35.1583 164.324 34.575V21.05H160.324C159.84 21.05 159.599 20.65 159.599 19.85V17.925ZM169.324 17.925H173.324C173.807 17.925 174.049 18.325 174.049 19.125V21.05H169.324V17.925ZM183.207 17.925V32.9C183.207 33.15 183.265 33.3333 183.382 33.45C183.515 33.5667 183.799 33.625 184.232 33.625H186.082V36H182.907C182.24 36 181.682 35.95 181.232 35.85C180.799 35.75 180.415 35.55 180.082 35.25C179.765 34.9333 179.515 34.5833 179.332 34.2C179.165 33.8167 179.032 33.2417 178.932 32.475C178.782 31.325 178.707 29.7833 178.707 27.85C178.707 25.9 178.715 24.525 178.732 23.725C178.765 22.925 178.832 22.15 178.932 21.4C179.032 20.6333 179.165 20.0667 179.332 19.7C179.515 19.3167 179.765 18.975 180.082 18.675C180.415 18.3583 180.799 18.1583 181.232 18.075C181.682 17.975 182.24 17.925 182.907 17.925H183.207ZM184.207 17.95H187.382C188.049 17.95 188.599 18 189.032 18.1C189.482 18.2 189.865 18.4083 190.182 18.725C190.515 19.025 190.765 19.3667 190.932 19.75C191.115 20.1333 191.257 20.7083 191.357 21.475C191.507 22.625 191.582 24.175 191.582 26.125C191.582 28.0583 191.565 29.425 191.532 30.225C191.515 31.025 191.457 31.8083 191.357 32.575C191.257 33.325 191.115 33.8917 190.932 34.275C190.765 34.6417 190.515 34.9833 190.182 35.3C189.865 35.6 189.482 35.8 189.032 35.9C188.599 35.9833 188.049 36.025 187.382 36.025H187.082V21.05C187.082 20.8 187.015 20.6167 186.882 20.5C186.765 20.3833 186.49 20.325 186.057 20.325H184.207V17.95ZM201.922 17.95V25.125C201.922 25.3917 201.981 25.5833 202.097 25.7C202.231 25.8167 202.514 25.875 202.947 25.875H204.797V28.25H201.622C200.672 28.25 199.906 28.15 199.322 27.95C198.756 27.75 198.331 27.4 198.047 26.9C197.781 26.3833 197.606 25.8333 197.522 25.25C197.456 24.6667 197.422 23.8833 197.422 22.9C197.422 21.9 197.456 21.1417 197.522 20.625C197.606 20.1083 197.781 19.625 198.047 19.175C198.331 18.725 198.756 18.4083 199.322 18.225C199.906 18.0417 200.672 17.95 201.622 17.95H201.922ZM205.797 25.875H206.097C206.814 25.875 207.364 25.8917 207.747 25.925C208.147 25.9417 208.531 26.0167 208.897 26.15C209.264 26.2667 209.514 26.4083 209.647 26.575C209.797 26.7417 209.931 27.0333 210.047 27.45C210.181 27.85 210.256 28.2833 210.272 28.75C210.289 29.2167 210.297 29.8833 210.297 30.75C210.297 31.6167 210.289 32.3083 210.272 32.825C210.256 33.325 210.181 33.8083 210.047 34.275C209.931 34.725 209.797 35.0417 209.647 35.225C209.514 35.4083 209.264 35.575 208.897 35.725C208.531 35.8583 208.147 35.9417 207.747 35.975C207.364 35.9917 206.814 36 206.097 36H205.797V25.875ZM197.772 30.425H200.922C201.156 30.425 201.297 30.4583 201.347 30.525C201.397 30.5917 201.422 30.7333 201.422 30.95V32.9C201.422 33.1667 201.456 33.3583 201.522 33.475C201.606 33.575 201.797 33.625 202.097 33.625H204.797V36H201.122C199.906 36 198.981 35.7917 198.347 35.375C197.731 34.9583 197.422 34.2333 197.422 33.2V30.95C197.422 30.6 197.539 30.425 197.772 30.425ZM202.922 17.925H206.097C207.314 17.925 208.231 18.1333 208.847 18.55C209.481 18.9667 209.797 19.6917 209.797 20.725V22.975C209.797 23.325 209.681 23.5 209.447 23.5H206.297C206.064 23.5 205.922 23.4667 205.872 23.4C205.822 23.3333 205.797 23.1917 205.797 22.975V21.025C205.797 20.7583 205.756 20.575 205.672 20.475C205.606 20.3583 205.422 20.3 205.122 20.3H202.922V17.925Z" fill="url(#paint5_linear_98_2)"/>
<defs>
<filter id="filter0_d_98_2" x="64.5" y="0.5" width="172.709" height="52.7006" filterUnits="userSpaceOnUse" color-interpolation-filters="sRGB">
<feFlood flood-opacity="0" result="BackgroundImageFix"/>
<feColorMatrix in="SourceAlpha" type="matrix" values="0 0 0 0 0 0 0 0 0 0 0 0 0 0 0 0 0 0 127 0" result="hardAlpha"/>
<feOffset/>
<feGaussianBlur stdDeviation="1.5"/>
<feColorMatrix type="matrix" values="0 0 0 0 0 0 0 0 0 0 0 0 0 0 0 0 0 0 0.25 0"/>
<feBlend mode="screen" in2="BackgroundImageFix" result="effect1_dropShadow_98_2"/>
<feBlend mode="normal" in="SourceGraphic" in2="effect1_dropShadow_98_2" result="shape"/>
</filter>
<linearGradient id="paint0_linear_98_2" x1="151" y1="49.9998" x2="151" y2="202" gradientUnits="userSpaceOnUse">
<stop stop-color="white"/>
<stop offset="1" stop-color="#DFDFDF"/>
</linearGradient>
<linearGradient id="paint1_linear_98_2" x1="151" y1="49.9998" x2="151" y2="255" gradientUnits="userSpaceOnUse">
<stop stop-color="white"/>
<stop offset="1" stop-color="#DFDFDF"/>
</linearGradient>
<linearGradient id="paint2_linear_98_2" x1="0.287052" y1="260.94" x2="301.713" y2="260.94" gradientUnits="userSpaceOnUse">
<stop stop-color="#0085FF"/>
<stop offset="0.515625" stop-color="white"/>
<stop offset="1" stop-color="#0085FF"/>
</linearGradient>
<linearGradient id="paint3_linear_98_2" x1="151.103" y1="68.5769" x2="151.103" y2="-22.8243" gradientUnits="userSpaceOnUse">
<stop offset="0.380208" stop-color="#ECECEC"/>
<stop offset="0.708333" stop-color="#F1F1F1"/>
<stop offset="0.9998"/>
<stop offset="0.9999" stop-color="#EEEEEE"/>
</linearGradient>
<linearGradient id="paint4_linear_98_2" x1="150.855" y1="49.7006" x2="150.855" y2="4" gradientUnits="userSpaceOnUse">
<stop stop-opacity="0"/>
<stop offset="0.572917" stop-color="#00C2FF"/>
<stop offset="1" stop-opacity="0"/>
</linearGradient>
<linearGradient id="paint5_linear_98_2" x1="151" y1="11" x2="151" y2="59.6136" gradientUnits="userSpaceOnUse">
<stop/>
<stop offset="1" stop-color="#DD0909"/>
</linearGradient>
</defs>
</svg>
