<svg width="302" height="256" viewBox="0 0 302 256" fill="none" xmlns="http://www.w3.org/2000/svg">
<path d="M0 64.8894C0 56.6661 9.59413 49.9998 21.4292 49.9998H280.571C292.405 49.9998 302 56.6661 302 64.8894V169.476C302 176.595 294.746 182.719 284.69 184.088L155.119 201.722C152.399 202.092 149.601 202.092 146.881 201.722L17.3102 184.088C7.25431 182.719 0 176.595 0 169.476V64.8894Z" fill="url(#paint0_linear_98_2)"/>
<path d="M21.6755 49.9998H280.325C291.743 49.9998 301 58.7479 301 69.5394V211.521C301 220.864 294 228.901 284.298 230.695H154.974C152 230.695 150 230.695 147.026 230.695H17.7014C7.99915 228.901 1 220.864 1 211.521V69.5394C1 58.7479 10.2568 49.9998 21.6755 49.9998Z" fill="url(#paint1_linear_98_2)" stroke="url(#paint2_linear_98_2)"/>
<g filter="url(#filter0_d_98_2)">
<path d="M233.709 49.7006L68 49.7005V24C68 12.9543 76.9543 4 88 4H213.709C224.755 4 233.709 12.9543 233.709 24V49.7006Z" fill="url(#paint3_linear_98_2)"/>
<path d="M233.709 49.7006L68 49.7005V24C68 12.9543 76.9543 4 88 4H213.709C224.755 4 233.709 12.9543 233.709 24V49.7006Z" stroke="url(#paint4_linear_98_2)"/>
</g>
<path d="M111.775 36H109.15C108.583 36 108.208 35.9083 108.025 35.725C107.858 35.5417 107.775 35.1583 107.775 34.575V19.35C107.775 18.7667 107.858 18.3833 108.025 18.2C108.208 18.0167 108.583 17.925 109.15 17.925H111.775V36ZM119.5 32.5V34.625C119.5 35.1917 119.408 35.5667 119.225 35.75C119.042 35.9167 118.658 36 118.075 36H112.775V32.5H119.5ZM118 25.125V26.625C118 27.225 117.942 27.6083 117.825 27.775C117.708 27.925 117.375 28 116.825 28H112.775V25.125H118ZM119.25 17.925V20.05C119.25 20.6167 119.158 20.9917 118.975 21.175C118.792 21.3417 118.408 21.425 117.825 21.425H112.775V17.925H119.25ZM129.128 36H126.503C125.936 36 125.561 35.9083 125.378 35.725C125.211 35.5417 125.128 35.1583 125.128 34.575V18.925C125.128 18.625 125.211 18.3833 125.378 18.2C125.544 18.0167 125.761 17.925 126.028 17.925H129.128V36ZM130.128 17.925H133.303C134.269 17.925 135.028 18 135.578 18.15C136.144 18.3 136.569 18.6 136.853 19.05C137.136 19.4833 137.311 19.975 137.378 20.525C137.461 21.0583 137.503 21.8167 137.503 22.8C137.503 23.7833 137.461 24.5333 137.378 25.05C137.311 25.5667 137.136 26.05 136.853 26.5C136.586 26.95 136.161 27.2667 135.578 27.45C135.011 27.6333 134.253 27.725 133.303 27.725H130.128V25.35H131.978C132.411 25.35 132.686 25.2917 132.803 25.175C132.936 25.0583 133.003 24.875 133.003 24.625V21.05C133.003 20.7833 132.936 20.5917 132.803 20.475C132.686 20.3583 132.411 20.3 131.978 20.3H130.128V17.925ZM132.528 28.5H135.628C136.128 28.5 136.486 28.6417 136.703 28.925C136.919 29.1917 137.028 29.6333 137.028 30.25V36H133.428C133.161 36 132.944 35.9083 132.778 35.725C132.611 35.5417 132.528 35.3 132.528 35V28.5ZM147.481 36H144.856C144.289 36 143.914 35.9083 143.731 35.725C143.564 35.5417 143.481 35.1583 143.481 34.575V18.925C143.481 18.625 143.564 18.3833 143.731 18.2C143.898 18.0167 144.114 17.925 144.381 17.925H147.481V36ZM148.481 17.925H151.656C152.623 17.925 153.381 18 153.931 18.15C154.498 18.3 154.923 18.6 155.206 19.05C155.489 19.4833 155.664 19.975 155.731 20.525C155.814 21.0583 155.856 21.8167 155.856 22.8C155.856 23.7833 155.814 24.5333 155.731 25.05C155.664 25.5667 155.489 26.05 155.206 26.5C154.939 26.95 154.514 27.2667 153.931 27.45C153.364 27.6333 152.606 27.725 151.656 27.725H148.481V25.35H150.331C150.764 25.35 151.039 25.2917 151.156 25.175C151.289 25.0583 151.356 24.875 151.356 24.625V21.05C151.356 20.7833 151.289 20.5917 151.156 20.475C151.039 20.3583 150.764 20.3 150.331 20.3H148.481V17.925ZM150.881 28.5H153.981C154.481 28.5 154.839 28.6417 155.056 28.925C155.273 29.1917 155.381 29.6333 155.381 30.25V36H151.781C151.514 36 151.298 35.9083 151.131 35.725C150.964 35.5417 150.881 35.3 150.881 35V28.5ZM166.135 17.925V32.9C166.135 33.15 166.193 33.3333 166.31 33.45C166.443 33.5667 166.726 33.625 167.16 33.625H169.01V36H165.835C165.168 36 164.61 35.95 164.16 35.85C163.726 35.75 163.343 35.55 163.01 35.25C162.693 34.9333 162.443 34.5833 162.26 34.2C162.093 33.8167 161.96 33.2417 161.86 32.475C161.71 31.325 161.635 29.7833 161.635 27.85C161.635 25.9 161.643 24.525 161.66 23.725C161.693 22.925 161.76 22.15 161.86 21.4C161.96 20.6333 162.093 20.0667 162.26 19.7C162.443 19.3167 162.693 18.975 163.01 18.675C163.343 18.3583 163.726 18.1583 164.16 18.075C164.61 17.975 165.168 17.925 165.835 17.925H166.135ZM167.135 17.95H170.31C170.976 17.95 171.526 18 171.96 18.1C172.41 18.2 172.793 18.4083 173.11 18.725C173.443 19.025 173.693 19.3667 173.86 19.75C174.043 20.1333 174.185 20.7083 174.285 21.475C174.435 22.625 174.51 24.175 174.51 26.125C174.51 28.0583 174.493 29.425 174.46 30.225C174.443 31.025 174.385 31.8083 174.285 32.575C174.185 33.325 174.043 33.8917 173.86 34.275C173.693 34.6417 173.443 34.9833 173.11 35.3C172.793 35.6 172.41 35.8 171.96 35.9C171.526 35.9833 170.976 36.025 170.31 36.025H170.01V21.05C170.01 20.8 169.943 20.6167 169.81 20.5C169.693 20.3833 169.418 20.325 168.985 20.325H167.135V17.95ZM184.85 17.95V25.125C184.85 25.3917 184.909 25.5833 185.025 25.7C185.159 25.8167 185.442 25.875 185.875 25.875H187.725V28.25H184.55C183.6 28.25 182.834 28.15 182.25 27.95C181.684 27.75 181.259 27.4 180.975 26.9C180.709 26.3833 180.534 25.8333 180.45 25.25C180.384 24.6667 180.35 23.8833 180.35 22.9C180.35 21.9 180.384 21.1417 180.45 20.625C180.534 20.1083 180.709 19.625 180.975 19.175C181.259 18.725 181.684 18.4083 182.25 18.225C182.834 18.0417 183.6 17.95 184.55 17.95H184.85ZM188.725 25.875H189.025C189.742 25.875 190.292 25.8917 190.675 25.925C191.075 25.9417 191.459 26.0167 191.825 26.15C192.192 26.2667 192.442 26.4083 192.575 26.575C192.725 26.7417 192.859 27.0333 192.975 27.45C193.109 27.85 193.184 28.2833 193.2 28.75C193.217 29.2167 193.225 29.8833 193.225 30.75C193.225 31.6167 193.217 32.3083 193.2 32.825C193.184 33.325 193.109 33.8083 192.975 34.275C192.859 34.725 192.725 35.0417 192.575 35.225C192.442 35.4083 192.192 35.575 191.825 35.725C191.459 35.8583 191.075 35.9417 190.675 35.975C190.292 35.9917 189.742 36 189.025 36H188.725V25.875ZM180.7 30.425H183.85C184.084 30.425 184.225 30.4583 184.275 30.525C184.325 30.5917 184.35 30.7333 184.35 30.95V32.9C184.35 33.1667 184.384 33.3583 184.45 33.475C184.534 33.575 184.725 33.625 185.025 33.625H187.725V36H184.05C182.834 36 181.909 35.7917 181.275 35.375C180.659 34.9583 180.35 34.2333 180.35 33.2V30.95C180.35 30.6 180.467 30.425 180.7 30.425ZM185.85 17.925H189.025C190.242 17.925 191.159 18.1333 191.775 18.55C192.409 18.9667 192.725 19.6917 192.725 20.725V22.975C192.725 23.325 192.609 23.5 192.375 23.5H189.225C188.992 23.5 188.85 23.4667 188.8 23.4C188.75 23.3333 188.725 23.1917 188.725 22.975V21.025C188.725 20.7583 188.684 20.575 188.6 20.475C188.534 20.3583 188.35 20.3 188.05 20.3H185.85V17.925Z" fill="url(#paint5_linear_98_2)"/>
<defs>
<filter id="filter0_d_98_2" x="64.5" y="0.5" width="172.709" height="52.7006" filterUnits="userSpaceOnUse" color-interpolation-filters="sRGB">
<feFlood flood-opacity="0" result="BackgroundImageFix"/>
<feColorMatrix in="SourceAlpha" type="matrix" values="0 0 0 0 0 0 0 0 0 0 0 0 0 0 0 0 0 0 127 0" result="hardAlpha"/>
<feOffset/>
<feGaussianBlur stdDeviation="1.5"/>
<feColorMatrix type="matrix" values="0 0 0 0 0 0 0 0 0 0 0 0 0 0 0 0 0 0 0.25 0"/>
<feBlend mode="screen" in2="BackgroundImageFix" result="effect1_dropShadow_98_2"/>
<feBlend mode="normal" in="SourceGraphic" in2="effect1_dropShadow_98_2" result="shape"/>
</filter>
<linearGradient id="paint0_linear_98_2" x1="151" y1="49.9998" x2="151" y2="202" gradientUnits="userSpaceOnUse">
<stop stop-color="white"/>
<stop offset="1" stop-color="#DFDFDF"/>
</linearGradient>
<linearGradient id="paint1_linear_98_2" x1="151" y1="49.9998" x2="151" y2="255" gradientUnits="userSpaceOnUse">
<stop stop-color="white"/>
<stop offset="1" stop-color="#DFDFDF"/>
</linearGradient>
<linearGradient id="paint2_linear_98_2" x1="0.287052" y1="260.94" x2="301.713" y2="260.94" gradientUnits="userSpaceOnUse">
<stop stop-color="#0085FF"/>
<stop offset="0.515625" stop-color="white"/>
<stop offset="1" stop-color="#0085FF"/>
</linearGradient>
<linearGradient id="paint3_linear_98_2" x1="151.103" y1="68.5769" x2="151.103" y2="-22.8243" gradientUnits="userSpaceOnUse">
<stop offset="0.380208" stop-color="#ECECEC"/>
<stop offset="0.708333" stop-color="#F1F1F1"/>
<stop offset="0.9998"/>
<stop offset="0.9999" stop-color="#EEEEEE"/>
</linearGradient>
<linearGradient id="paint4_linear_98_2" x1="150.855" y1="49.7006" x2="150.855" y2="4" gradientUnits="userSpaceOnUse">
<stop stop-opacity="0"/>
<stop offset="0.572917" stop-color="#00C2FF"/>
<stop offset="1" stop-opacity="0"/>
</linearGradient>
<linearGradient id="paint5_linear_98_2" x1="150.5" y1="11" x2="150.5" y2="59.6136" gradientUnits="userSpaceOnUse">
<stop/>
<stop offset="1" stop-color="#DD0909"/>
</linearGradient>
</defs>
</svg>
